<svg id="Capa_1" enable-background="new 0 0 510 510" height="512" viewBox="0 0 510 510" width="512" xmlns="http://www.w3.org/2000/svg" xmlns:xlink="http://www.w3.org/1999/xlink"><linearGradient id="lg1"><stop offset="0" stop-color="#69b7a8"/><stop offset="1" stop-color="#0b799d"/></linearGradient><linearGradient id="SVGID_1_" gradientUnits="userSpaceOnUse" x1="71.303" x2="184.147" xlink:href="#lg1" y1="158.433" y2="182.14"/><linearGradient id="SVGID_2_" gradientTransform="matrix(.707 .707 -.707 .707 266.926 -97.003)" gradientUnits="userSpaceOnUse" x1="130.791" x2="329.657" xlink:href="#lg1" y1="134.4" y2="333.267"/><linearGradient id="lg2"><stop offset="0" stop-color="#0b799d" stop-opacity="0"/><stop offset=".1739" stop-color="#117d9e" stop-opacity=".174"/><stop offset=".414" stop-color="#2389a0" stop-opacity=".414"/><stop offset=".6928" stop-color="#409ca3" stop-opacity=".693"/><stop offset=".9986" stop-color="#69b7a8" stop-opacity=".999"/><stop offset="1" stop-color="#69b7a8"/></linearGradient><linearGradient id="SVGID_3_" gradientTransform="matrix(.707 .707 -.707 .707 266.926 -97.003)" gradientUnits="userSpaceOnUse" x1="189.598" x2="289.166" xlink:href="#lg2" y1="141.394" y2="113.894"/><linearGradient id="SVGID_4_" gradientTransform="matrix(.707 .707 -.707 .707 266.926 -97.003)" gradientUnits="userSpaceOnUse" x1="139.129" x2="222.327" xlink:href="#lg2" y1="163.12" y2="146.067"/><linearGradient id="SVGID_5_" gradientTransform="matrix(.707 .707 -.707 .707 266.926 -97.003)" gradientUnits="userSpaceOnUse" x1="264.118" x2="357.996" xlink:href="#lg2" y1="161.597" y2="145.476"/><linearGradient id="SVGID_6_" gradientTransform="matrix(.707 .707 -.707 .707 266.926 -97.003)" gradientUnits="userSpaceOnUse" x1="334.584" x2="418.032" xlink:href="#lg2" y1="180.103" y2="157.344"/><linearGradient id="SVGID_7_" gradientUnits="userSpaceOnUse" x1="140.51" x2="117.104" xlink:href="#lg1" y1="347.941" y2="371.347"/><linearGradient id="lg3"><stop offset="0" stop-color="#9ae1d3"/><stop offset="1" stop-color="#80d1c1"/></linearGradient><linearGradient id="SVGID_8_" gradientUnits="userSpaceOnUse" x1="113.994" x2="156.285" xlink:href="#lg3" y1="239.528" y2="233.413"/><linearGradient id="SVGID_9_" gradientTransform="matrix(.707 .707 -.707 .707 266.926 -97.003)" gradientUnits="userSpaceOnUse" x1="176.742" x2="375.609" xlink:href="#lg3" y1="180.352" y2="379.218"/><linearGradient id="SVGID_10_" gradientTransform="matrix(.707 .707 -.707 .707 266.926 -97.003)" gradientUnits="userSpaceOnUse" x1="235.549" x2="335.117" xlink:href="#lg2" y1="187.346" y2="159.846"/><linearGradient id="SVGID_11_" gradientTransform="matrix(.707 .707 -.707 .707 266.926 -97.003)" gradientUnits="userSpaceOnUse" x1="185.081" x2="268.278" xlink:href="#lg2" y1="209.071" y2="192.018"/><linearGradient id="SVGID_12_" gradientTransform="matrix(.707 .707 -.707 .707 266.926 -97.003)" gradientUnits="userSpaceOnUse" x1="310.069" x2="403.948" xlink:href="#lg2" y1="207.548" y2="191.428"/><linearGradient id="SVGID_13_" gradientTransform="matrix(.707 .707 -.707 .707 266.926 -97.003)" gradientUnits="userSpaceOnUse" x1="380.535" x2="463.983" xlink:href="#lg2" y1="226.054" y2="203.296"/><linearGradient id="SVGID_14_" gradientUnits="userSpaceOnUse" x1="140.51" x2="117.104" xlink:href="#lg3" y1="412.926" y2="436.332"/><g><g><path d="m92.601 229.946 110.89-110.782-64.689-.031c-25.486-.012-46.157 20.638-46.169 46.124z" fill="url(#SVGID_1_)"/><path d="m456.871 172.909c-12.925-12.925-33.881-12.925-46.806 0l26.704-26.704c12.925-12.925 12.925-33.881 0-46.806-12.925-12.925-33.881-12.925-46.806 0l32.973-32.973c12.925-12.925 12.925-33.881 0-46.806-12.925-12.925-33.881-12.925-46.806 0l-36.878 36.88c12.925-12.925 12.925-33.881 0-46.806-12.925-12.925-33.881-12.925-46.806 0l-185.041 185.041c-11.443 11.443-17.871 26.962-17.871 43.145 0 16.182-6.429 31.702-17.871 43.145l-9.48 9.48 138.546 138.545 2.301-2.301c14.435-14.435 32.635-24.526 52.525-29.122 19.89-4.596 38.09-14.687 52.525-29.122l148.791-148.791c12.925-12.924 12.925-33.88 0-46.805z" fill="url(#SVGID_2_)"/><path d="m213.816 275.547-46.806-46.806 209.12-209.12c12.925-12.925 33.881-12.925 46.806 0 12.925 12.925 12.925 33.881 0 46.806z" fill="url(#SVGID_3_)"/><path d="m167.01 228.741-46.806-46.806 172.242-172.241c12.925-12.925 33.881-12.925 46.806 0 12.925 12.925 12.925 33.881 0 46.806z" fill="url(#SVGID_4_)"/><path d="m260.622 322.352-46.806-46.806 176.148-176.147c12.925-12.925 33.881-12.925 46.806 0 12.925 12.925 12.925 33.881 0 46.806z" fill="url(#SVGID_5_)"/><path d="m307.428 369.158-46.806-46.806 149.443-149.443c12.925-12.925 33.881-12.925 46.806 0 12.925 12.925 12.925 33.881 0 46.806z" fill="url(#SVGID_6_)"/><path d="m177.376 438.436-127.362-127.362c-8.771-8.772-8.771-22.993 0-31.764l.975-.975c8.771-8.771 22.993-8.771 31.764 0l127.362 127.362c8.771 8.772 8.771 22.993 0 31.764l-.975.975c-8.771 8.772-22.993 8.772-31.764 0z" fill="url(#SVGID_7_)"/></g><g><path d="m92.601 294.931 110.89-110.782-64.689-.031c-25.486-.012-46.157 20.638-46.169 46.124z" fill="url(#SVGID_8_)"/><path d="m456.871 237.894c-12.925-12.925-33.881-12.925-46.806 0l26.704-26.704c12.925-12.925 12.925-33.881 0-46.806-12.925-12.925-33.881-12.925-46.806 0l32.973-32.973c12.925-12.925 12.925-33.881 0-46.806-12.925-12.925-33.881-12.925-46.806 0l-36.879 36.879c12.925-12.925 12.925-33.881 0-46.806-12.925-12.925-33.881-12.925-46.806 0l-185.04 185.042c-11.443 11.443-17.871 26.962-17.871 43.145 0 16.182-6.429 31.702-17.871 43.145l-9.48 9.48 138.546 138.546 2.301-2.301c14.435-14.435 32.635-24.526 52.525-29.122 19.89-4.596 38.09-14.687 52.525-29.122l148.791-148.791c12.925-12.925 12.925-33.881 0-46.806z" fill="url(#SVGID_9_)"/><path d="m213.816 340.532-46.806-46.806 209.12-209.12c12.925-12.925 33.881-12.925 46.806 0 12.925 12.925 12.925 33.881 0 46.806z" fill="url(#SVGID_10_)"/><path d="m167.01 293.726-46.806-46.806 172.242-172.241c12.925-12.925 33.881-12.925 46.806 0 12.925 12.925 12.925 33.881 0 46.806z" fill="url(#SVGID_11_)"/><path d="m260.622 387.338-46.806-46.806 176.148-176.148c12.925-12.925 33.881-12.925 46.806 0 12.925 12.925 12.925 33.881 0 46.806z" fill="url(#SVGID_12_)"/><path d="m307.428 434.143-46.806-46.806 149.443-149.443c12.925-12.925 33.881-12.925 46.806 0 12.925 12.925 12.925 33.881 0 46.806z" fill="url(#SVGID_13_)"/><path d="m177.376 503.421-127.362-127.362c-8.771-8.771-8.771-22.993 0-31.764l.975-.975c8.771-8.771 22.993-8.771 31.764 0l127.362 127.362c8.771 8.771 8.771 22.993 0 31.764l-.975.975c-8.771 8.772-22.993 8.772-31.764 0z" fill="url(#SVGID_14_)"/></g></g></svg>