<svg height="512" viewBox="0 0 512 512" width="512" xmlns="http://www.w3.org/2000/svg"><g id="Flat"><path d="m176 432v24h-8a16 16 0 0 0 -16 16v16h80v-56z" fill="#00a8e7"/><path d="m336 432v24h8a16 16 0 0 1 16 16v16h-80v-56z" fill="#00a8e7"/><path d="m168 312v112a8 8 0 0 0 8 8h56a8 8 0 0 0 8-8v-8a16 16 0 0 1 16-16 16 16 0 0 1 16 16v8a8 8 0 0 0 8 8h56a8 8 0 0 0 8-8v-112z" fill="#eceff0"/><path d="m344 200v-88a88 88 0 0 0 -88-88 88 88 0 0 0 -88 88v88l-48 48-24-24-32 32 44.69 44.69a16 16 0 0 0 22.62 0l36.69-36.69v48h176v-48l36.69 36.69a16 16 0 0 0 22.62 0l44.69-44.69-32-32-24 24z" fill="#eceff0"/><g fill="#d1e1e5"><path d="m432 240-40 40-48-48v32l36.69 36.69a16 16 0 0 0 22.62 0l44.69-44.69z"/><path d="m120 280-40-40-16 16 44.69 44.69a16 16 0 0 0 22.62 0l36.69-36.69v-32z"/><path d="m344 200v-88a88 88 0 0 0 -88-88 87.92 87.92 0 0 0 -73.76 40h81.76a40 40 0 0 1 40 40v208h40z"/><path d="m304 312v120h32a8 8 0 0 0 8-8v-112z"/><path d="m200 432v-24a24 24 0 0 1 24-24h32v16a16 16 0 0 0 -16 16v8a8 8 0 0 1 -8 8z"/></g><path d="m96 224-32 32-33.37-33.37a22.62 22.62 0 0 1 -6.63-16 22.63 22.63 0 0 1 22.63-22.63 22.62 22.62 0 0 1 16 6.63l9.37 9.37 4-4a17 17 0 0 1 24 0 17 17 0 0 1 0 24z" fill="#00a8e7"/><path d="m416 224 32 32 33.37-33.37a22.62 22.62 0 0 0 6.63-16 22.63 22.63 0 0 0 -22.63-22.63 22.62 22.62 0 0 0 -16 6.63l-9.37 9.37-4-4a17 17 0 0 0 -24 0 17 17 0 0 0 0 24z" fill="#00a8e7"/><rect fill="#fac8b2" height="96" rx="24" width="96" x="208" y="96"/><circle cx="232" cy="120" fill="#f97d7d" r="8"/><circle cx="280" cy="120" fill="#f97d7d" r="8"/><path d="m288 176h-64a56 56 0 0 1 0-112h64a56 56 0 0 1 0 112zm-64-96a40 40 0 0 0 0 80h64a40 40 0 0 0 0-80z" fill="#00a8e7"/><path d="m256 80a8 8 0 0 1 -8-8v-48a8 8 0 0 1 16 0v48a8 8 0 0 1 -8 8z" fill="#00a8e7"/><path d="m256 408a8 8 0 0 1 -8-8v-200a8 8 0 0 1 16 0v200a8 8 0 0 1 -8 8z" fill="#00a8e7"/><path d="m192 160h32v48h-32z" fill="#ffdb43"/><path d="m288 160h32v48h-32z" fill="#ffdb43"/><path d="m240 152v16h-16v32h64v-32h-16v-16a16 16 0 0 0 -16-16 16 16 0 0 0 -16 16z" fill="#5ec09b"/><rect fill="#00a8e7" height="16" rx="8" width="192" x="160" y="304"/><rect fill="#00a8e7" height="16" rx="8" width="144" x="184" y="240"/><path d="m192 184h32v24h-32z" fill="#fcc200"/><path d="m288 184h32v24h-32z" fill="#fcc200"/><path d="m224 184h64v16h-64z" fill="#42a87e"/><path d="m272 168h-16v-32a16 16 0 0 1 16 16z" fill="#42a87e"/></g></svg>